<svg width="520" height="228" viewBox="0 0 520 228" fill="none" xmlns="http://www.w3.org/2000/svg">
<g id="403">
<path d="M86.9437 180.699H0V151.093L36.1413 3.40298H79.1017L46.37 145.988H86.9437V180.699ZM136.041 224.597H93.7628V91.8806H136.041V145.988H158.203V180.699H136.041V224.597Z" fill="white"/>
<path d="M257.784 228C216.528 226.639 176.295 198.394 176.295 114C176.295 29.606 216.528 1.3612 257.784 0V34.7104C237.326 36.7522 219.938 55.809 219.938 114C219.938 172.191 237.326 191.248 257.784 193.29V228ZM264.603 228V193.29C285.06 191.248 302.79 172.191 302.79 114C302.79 55.809 285.06 36.7522 264.603 34.7104V0C306.199 1.3612 346.432 29.606 346.432 114C346.432 198.394 306.199 226.639 264.603 228Z" fill="white"/>
<path d="M412.599 53.0866H368.616C378.844 21.7791 406.121 1.70149 441.239 0V34.3702C426.578 35.391 417.372 43.5582 412.599 53.0866ZM441.239 228C406.462 226.299 379.526 206.561 369.298 174.913H413.281C418.054 184.102 427.26 191.928 441.239 193.63V228ZM448.058 228V193.97C465.447 192.949 476.358 180.358 476.358 162.663C476.358 140.543 459.992 128.633 435.784 128.633H427.942V94.2627H434.761C459.31 94.2627 473.289 80.991 473.289 62.6149C473.289 47.9821 464.083 35.7313 448.058 34.3702V0C492.724 1.0209 517.272 27.2239 517.272 61.2537C517.272 83.3731 503.634 103.791 483.859 110.257C506.021 118.084 520 135.779 520 163.343C520 196.352 497.497 226.979 448.058 228Z" fill="white"/>
</g>
</svg>
