<svg width="520" height="226" viewBox="0 0 520 226" fill="none" xmlns="http://www.w3.org/2000/svg">
<g id="404">
<path d="M254.941 34.4065C234.706 36.4306 217.507 55.3201 217.507 113C217.507 170.68 234.706 189.569 254.941 191.593V226C214.134 224.651 174.338 196.653 174.338 113C174.338 29.3469 214.134 1.34945 254.941 0V34.4065Z" fill="white"/>
<path d="M261.686 0C302.831 1.34937 342.626 29.3468 342.626 113C342.626 196.653 302.831 224.651 261.686 226V191.593C281.921 189.569 299.458 170.68 299.458 113C299.458 55.3199 281.921 36.4305 261.686 34.4065V0Z" fill="white"/>
<path d="M134.562 144.707H156.483V179.113H134.562V222.626H92.7434V91.0751H134.562V144.707Z" fill="white"/>
<path d="M498.079 144.707H520V179.113H498.079V222.626H456.26V91.0751H498.079V144.707Z" fill="white"/>
<path d="M45.8651 144.707H85.9986V179.113H0V149.767L35.7484 3.37351H78.2416L45.8651 144.707Z" fill="white"/>
<path d="M409.383 144.707H449.515V179.113H363.517V149.767L399.265 3.37351H441.758L409.383 144.707Z" fill="white"/>
</g>
</svg>
