<svg width="520" height="218" viewBox="0 0 520 218" fill="none" xmlns="http://www.w3.org/2000/svg">
<g id="408">
<path d="M83.0502 172.773H0V144.466L34.5228 3.25373H75.5594L44.2934 139.585H83.0502V172.773ZM129.949 214.746H89.5639V87.8508H129.949V139.585H151.119V172.773H129.949V214.746Z" fill="white"/>
<path d="M256.417 218C217.009 216.699 178.578 189.693 178.578 109C178.578 28.3075 217.009 1.3015 256.417 0V33.1881C236.876 35.1403 220.266 53.3612 220.266 109C220.266 164.639 236.876 182.86 256.417 184.812V218ZM262.931 218V184.812C282.472 182.86 299.408 164.639 299.408 109C299.408 53.3612 282.472 35.1403 262.931 33.1881V0C302.665 1.3015 341.096 28.3075 341.096 109C341.096 189.693 302.665 216.699 262.931 218Z" fill="white"/>
<path d="M442.161 218C393.959 216.699 371.161 186.764 371.161 153.902C371.161 132.752 381.257 116.158 399.17 107.373C381.909 98.9134 372.789 82.6448 372.789 62.4716C372.789 31.2358 394.936 1.3015 442.161 0V35.1403C426.528 36.4418 415.454 48.1552 415.454 62.797C415.454 77.4388 426.528 89.4776 442.161 90.7791V124.293C425.551 125.594 413.826 137.958 413.826 153.576C413.826 169.194 425.551 181.558 442.161 183.185V218ZM448.675 218V183.185C465.285 181.558 477.009 169.194 477.009 153.576C477.009 137.958 465.285 125.594 448.675 124.293V90.7791C464.308 89.4776 475.381 77.4388 475.381 62.797C475.381 48.1552 464.308 36.4418 448.675 35.1403V0C495.899 1.3015 518.372 31.2358 518.372 62.4716C518.372 82.6448 509.252 98.9134 491.991 107.373C509.578 116.158 520 132.752 520 153.902C520 186.764 496.876 216.699 448.675 218Z" fill="white"/>
</g>
</svg>
