<svg width="520" height="216" viewBox="0 0 520 216" fill="none" xmlns="http://www.w3.org/2000/svg">
<g id="415">
<path d="M83.0502 170.783H0V142.482L34.5228 1.30121H75.5594L44.2934 137.602H83.0502V170.783ZM129.949 212.747H89.5639V85.8795H129.949V137.602H151.119V170.783H129.949V212.747Z" fill="white"/>
<path d="M195.84 78.3976V39.0361L260.977 0H293.546V20.8193L195.84 78.3976ZM293.546 212.747H252.835V52.3735L293.546 28.6265V212.747Z" fill="white"/>
<path d="M421.643 117.108H380.932V1.30121H421.643V117.108ZM512.509 34.8072H428.156V1.30121H512.509V34.8072ZM444.766 216C410.243 214.699 384.84 194.855 374.744 165.253H416.757C421.643 174.361 430.762 182.169 444.766 183.47V216ZM451.28 216V183.47C467.564 181.518 478.312 166.88 478.312 146.711C478.312 120.036 462.679 107.349 444.441 107.349C437.601 107.349 432.065 108.651 428.156 110.928V77.0964C432.716 75.4699 439.23 74.1687 447.698 74.1687C495.899 74.1687 520 106.048 520 146.711C520 182.819 497.528 214.699 451.28 216Z" fill="white"/>
</g>
</svg>
