<svg width="520" height="217" viewBox="0 0 520 217" fill="none" xmlns="http://www.w3.org/2000/svg">
<g id="500">
<path d="M46.578 118.54H6.14571V3.2388H46.578V118.54ZM136.823 36.5985H53.0472V3.2388H136.823V36.5985ZM69.5436 217C35.257 215.704 10.0272 195.948 0 166.475H41.7262C46.578 175.543 55.6349 183.316 69.5436 184.612V217ZM76.0128 217V184.612C92.1857 182.669 102.86 168.094 102.86 148.013C102.86 121.455 87.3338 108.824 69.2201 108.824C62.4275 108.824 56.9287 110.119 53.0472 112.387V78.703C57.5756 77.0836 64.0448 75.7881 72.4547 75.7881C120.327 75.7881 144.263 107.528 144.263 148.013C144.263 183.964 121.944 215.704 76.0128 217Z" fill="white"/>
<path d="M251.428 217C212.29 215.704 174.122 188.822 174.122 108.5C174.122 28.1776 212.29 1.29552 251.428 0V33.0358C232.021 34.9791 215.524 53.1164 215.524 108.5C215.524 163.884 232.021 182.021 251.428 183.964V217ZM257.898 217V183.964C277.305 182.021 294.125 163.884 294.125 108.5C294.125 53.1164 277.305 34.9791 257.898 33.0358V0C297.359 1.29552 335.528 28.1776 335.528 108.5C335.528 188.822 297.359 215.704 257.898 217Z" fill="white"/>
<path d="M435.901 217C396.762 215.704 358.594 188.822 358.594 108.5C358.594 28.1776 396.762 1.29552 435.901 0V33.0358C416.493 34.9791 399.997 53.1164 399.997 108.5C399.997 163.884 416.493 182.021 435.901 183.964V217ZM442.37 217V183.964C461.777 182.021 478.597 163.884 478.597 108.5C478.597 53.1164 461.777 34.9791 442.37 33.0358V0C481.832 1.29552 520 28.1776 520 108.5C520 188.822 481.832 215.704 442.37 217Z" fill="white"/>
</g>
</svg>
