<svg width="520" height="221" viewBox="0 0 520 221" fill="none" xmlns="http://www.w3.org/2000/svg">
<g id="502">
<path d="M47.5542 120.725H6.27451V3.2985H47.5542V120.725ZM139.69 37.2731H54.1589V3.2985H139.69V37.2731ZM71.001 221C35.9959 219.681 10.2374 199.56 0 169.543H42.6006C47.5542 178.779 56.8008 186.696 71.001 188.015V221ZM77.6058 221V188.015C94.1177 186.036 105.015 171.193 105.015 150.742C105.015 123.694 89.1641 110.83 70.6708 110.83C63.7358 110.83 58.1218 112.149 54.1589 114.458V80.1537C58.7823 78.5045 65.387 77.1851 73.9732 77.1851C122.848 77.1851 147.286 109.51 147.286 150.742C147.286 187.355 124.499 219.681 77.6058 221Z" fill="white"/>
<path d="M256.698 221C216.739 219.681 177.771 192.303 177.771 110.5C177.771 28.697 216.739 1.31941 256.698 0V33.6448C236.883 35.6239 220.041 54.0955 220.041 110.5C220.041 166.904 236.883 185.376 256.698 187.355V221ZM263.302 221V187.355C283.117 185.376 300.289 166.904 300.289 110.5C300.289 54.0955 283.117 35.6239 263.302 33.6448V0C303.591 1.31941 342.559 28.697 342.559 110.5C342.559 192.303 303.591 219.681 263.302 221Z" fill="white"/>
<path d="M416.305 51.7866H373.705C382.952 21.1105 409.371 2.30895 443.715 0.329847V33.6448C430.175 34.6343 421.259 42.2209 416.305 51.7866ZM438.762 177.13H386.584L440.743 119.406C467.823 90.3791 474.758 74.2164 474.758 61.0224C474.758 45.5194 464.85 35.294 450.32 33.6448V0.329847C495.562 0.659693 517.688 29.0269 517.688 59.0433C517.688 81.1433 509.102 101.594 471.785 141.176L438.762 177.13ZM520 217.701H380.31V183.727H520V217.701Z" fill="white"/>
</g>
</svg>
