<svg width="520" height="230" viewBox="0 0 520 230" fill="none" xmlns="http://www.w3.org/2000/svg">
<g id="503">
<path d="M49.4217 125.642H6.52091V3.43283H49.4217V125.642ZM145.176 38.791H56.2858V3.43283H145.176V38.791ZM73.7893 230C37.4095 228.627 10.6394 207.687 0 176.448H44.2736C49.4217 186.06 59.0314 194.299 73.7893 195.672V230ZM80.6534 230V195.672C97.8137 193.612 109.14 178.164 109.14 156.881C109.14 128.731 92.6656 115.343 73.4461 115.343C66.2388 115.343 60.4043 116.716 56.2858 119.119V83.4179C61.0907 81.7015 67.9548 80.3283 76.8781 80.3283C127.673 80.3283 153.07 113.97 153.07 156.881C153.07 194.985 129.389 228.627 80.6534 230Z" fill="white"/>
<path d="M256.053 230C214.525 228.627 174.027 200.134 174.027 115C174.027 29.8657 214.525 1.37314 256.053 0V35.0149C235.461 37.0746 217.957 56.2985 217.957 115C217.957 173.701 235.461 192.925 256.053 194.985V230ZM262.917 230V194.985C283.51 192.925 301.356 173.701 301.356 115C301.356 56.2985 283.51 37.0746 262.917 35.0149V0C304.788 1.37314 345.287 29.8657 345.287 115C345.287 200.134 304.788 228.627 262.917 230Z" fill="white"/>
<path d="M411.89 53.5522H367.617C377.913 21.9701 405.369 1.71642 440.719 0V34.6716C425.962 35.7015 416.695 43.9403 411.89 53.5522ZM440.719 230C405.712 228.284 378.599 208.373 368.303 176.448H412.577C417.381 185.716 426.648 193.612 440.719 195.328V230ZM447.583 230V195.672C465.087 194.642 476.07 181.94 476.07 164.09C476.07 141.776 459.596 129.761 435.228 129.761H427.334V95.0896H434.198C458.909 95.0896 472.981 81.7015 472.981 63.1642C472.981 48.403 463.714 36.0448 447.583 34.6716V0C492.543 1.02986 517.254 27.4627 517.254 61.791C517.254 84.1045 503.526 104.701 483.62 111.224C505.929 119.119 520 136.97 520 164.776C520 198.075 497.348 228.97 447.583 230Z" fill="white"/>
</g>
</svg>
