<svg width="805" height="783" viewBox="0 0 805 783" fill="none" xmlns="http://www.w3.org/2000/svg">
<g id="enfineitz-glyph-large" clip-path="url(#clip0_26_43)">
<g id="enfineitz-glyph-primary">
<path id="Vector" d="M190.771 289.041C203.618 249.446 182.919 203.62 142.818 174.216C131.787 167.011 119.394 160.975 105.832 156.561C89.2209 151.174 72.5447 148.707 56.5823 148.902L0 323.248C12.7829 332.79 27.7072 340.579 44.3185 346.031C49.6393 347.784 54.9601 349.212 60.2809 350.315C60.9298 342.137 62.6169 334.088 65.4071 326.364C74.1021 302.347 92.4005 284.562 115.63 277.617L117.837 284.952C97.0075 291.183 80.4611 307.28 72.6096 329.025C62.4871 356.936 67.9377 390.04 86.0414 415.419C89.8049 419.768 93.9578 423.792 98.5648 427.362C102.199 423.727 105.897 420.352 109.79 417.107C93.828 403.086 86.885 380.368 93.828 358.883C103.172 330.063 134.123 314.29 162.999 323.637C185.58 330.972 200.114 351.483 200.893 373.877L253.517 334.737L258.059 340.838L213.481 373.942C209.458 375.24 206.084 378.291 204.722 382.64C202.45 389.715 206.279 397.309 213.352 399.581C220.424 401.853 228.016 398.023 230.287 390.948C231.39 387.443 231.066 383.873 229.509 380.822C231.845 381.666 234.181 382.575 236.581 383.354C271.037 394.583 306.596 393.869 339.234 383.614C340.402 384.977 341.96 386.08 343.841 386.664C349.227 388.417 354.937 385.496 356.689 380.108C358.441 374.721 355.521 369.009 350.135 367.256C349.357 366.997 348.578 366.867 347.799 366.802C341.83 365.634 335.925 364.141 329.955 362.193C268.117 342.072 228.016 286.12 225.161 224.781C214.649 223.547 204.138 224.002 193.885 225.949C202.84 247.434 204.851 270.282 197.908 291.572C195.702 298.323 192.717 304.749 188.889 310.656L182.465 306.566C185.904 301.179 188.629 295.402 190.641 289.236M224.512 389.001C223.279 392.896 219.062 395.038 215.168 393.804C211.275 392.571 209.134 388.352 210.367 384.457C211.665 380.563 215.817 378.421 219.711 379.719C223.604 380.952 225.745 385.171 224.447 389.066M352.342 378.551C351.368 381.536 348.189 383.159 345.204 382.186C342.219 381.212 340.597 378.031 341.57 375.11C342.544 372.125 345.723 370.502 348.708 371.476C351.693 372.449 353.315 375.63 352.342 378.551Z" fill="#1F2224"/>
<path id="Vector_2" d="M248.132 494.608C214.455 470.137 164.491 475.72 124.196 504.734C113.943 512.978 104.34 522.974 96.0342 534.462C85.7819 548.613 78.3198 563.737 73.583 578.925L221.787 686.675C234.83 677.458 246.834 665.644 257.151 651.559C260.46 647.015 263.445 642.407 266.17 637.668C258.579 634.488 251.441 630.398 245.017 625.335C224.837 609.627 213.611 586.714 214.195 562.503L221.787 562.698C221.268 584.443 231.455 605.084 249.689 619.364C273.113 637.603 306.271 642.666 335.925 633.319C341.246 631.112 346.307 628.386 351.109 625.076C348.773 620.532 346.696 615.924 344.815 611.25C326.516 622.09 302.832 621.701 284.534 608.459C260.006 590.609 254.555 556.337 272.4 531.801C286.351 512.588 310.359 505.124 331.902 511.29L310.943 449.107L318.146 446.705L335.86 499.347C335.86 503.566 337.742 507.72 341.376 510.381C347.41 514.73 355.781 513.432 360.193 507.395C364.541 501.424 363.243 492.986 357.208 488.637C354.223 486.495 350.719 485.716 347.345 486.17C348.903 484.223 350.46 482.276 351.887 480.198C373.171 450.859 383.553 416.847 383.812 382.64C385.499 381.926 386.992 380.822 388.16 379.2C391.469 374.656 390.431 368.295 385.889 364.92C381.347 361.609 374.988 362.583 371.613 367.191C371.159 367.841 370.77 368.555 370.51 369.269C367.525 374.591 364.281 379.784 360.647 384.847C322.428 437.423 256.762 458.324 197.584 442.032C193.172 451.703 190.381 461.829 189.019 472.15C212.184 470.267 234.57 475.395 252.674 488.572C258.384 492.726 263.575 497.594 267.987 502.982L262.082 507.85C258.059 502.917 253.388 498.503 248.132 494.738M353.639 493.375C356.949 495.777 357.662 500.45 355.262 503.76C352.861 507.071 348.189 507.785 344.88 505.383C341.57 502.982 340.856 498.308 343.257 494.998C345.658 491.687 350.33 490.973 353.639 493.375ZM383.228 368.555C385.759 370.372 386.278 373.942 384.461 376.409C382.644 378.94 379.14 379.524 376.61 377.642C374.079 375.824 373.56 372.254 375.377 369.788C377.194 367.256 380.763 366.737 383.228 368.555Z" fill="#1F2224"/>
<path id="Vector_3" d="M535.715 303.45C548.563 343.045 592.297 367.905 641.937 368.165C655.109 367.516 668.671 365.114 682.167 360.7C698.779 355.313 713.703 347.459 726.486 337.917L669.903 163.636C653.941 163.441 637.265 165.908 620.654 171.295C615.333 173.048 610.207 174.995 605.21 177.202C609.493 184.212 612.867 191.742 615.138 199.596C622.211 224.196 617.863 249.316 603.199 268.594L597.164 263.986C610.336 246.655 614.23 224.002 607.871 201.738C599.63 173.178 575.751 149.616 546.292 139.749C540.712 138.451 535.001 137.607 529.161 137.478C528.383 142.54 527.345 147.474 526.112 152.407C547.265 154.354 566.212 168.634 573.22 190.119C582.564 218.939 566.797 249.9 537.986 259.247C515.47 266.582 491.591 258.533 477.835 240.878L458.239 303.515L450.971 301.244L467.583 248.278C470.049 244.902 470.957 240.424 469.594 236.075C467.323 229 459.731 225.17 452.659 227.442C445.586 229.714 441.692 237.308 444.028 244.383C445.132 247.888 447.597 250.549 450.582 252.172C448.181 252.821 445.78 253.535 443.38 254.314C408.924 265.479 380.568 286.963 360.193 314.485C358.441 314.031 356.559 314.096 354.678 314.68C349.292 316.432 346.372 322.209 348.124 327.532C349.876 332.919 355.651 335.84 360.972 334.088C361.751 333.828 362.464 333.503 363.113 333.114C368.629 330.582 374.339 328.246 380.244 326.363C442.082 306.242 507.424 327.986 545.773 375.954C554.987 370.696 563.228 364.205 570.365 356.611C550.51 344.538 535.456 327.207 528.513 305.917C526.306 299.166 525.009 292.221 524.619 285.211L532.211 284.757C532.601 291.118 533.769 297.414 535.78 303.58M449.674 242.436C448.441 238.541 450.517 234.322 454.411 233.089C458.304 231.856 462.522 233.933 463.754 237.827C465.052 241.722 462.911 245.941 459.018 247.174C455.124 248.407 450.907 246.33 449.674 242.436ZM352.342 326.039C351.368 323.053 352.991 319.872 355.976 318.899C358.96 317.925 362.14 319.548 363.113 322.534C364.086 325.52 362.464 328.7 359.479 329.674C356.495 330.647 353.315 329.025 352.342 326.039Z" fill="#1F2224"/>
<path id="Vector_4" d="M650.566 764.696L565.239 647.21L544.085 662.593C545.448 666.813 544.085 671.551 540.322 674.342C535.65 677.717 529.161 676.679 525.722 672.07C522.348 667.397 523.386 660.906 528.058 657.531C531.821 654.804 536.818 654.934 540.387 657.531L644.272 582.041C681.713 573.408 716.233 580.873 733.818 605.149C761.33 642.991 737.451 707.186 680.545 748.598C673.407 753.791 666.075 758.399 658.613 762.359L672.044 780.858C690.667 774.757 708.706 765.669 725.447 753.531C804.091 696.346 826.867 590.804 782.613 507.266L780.667 508.694C783.197 526.479 776.06 544.978 760.616 556.207C760.227 556.467 759.838 556.726 759.448 556.986L754.971 550.82C755.361 550.56 755.75 550.3 756.139 550.041C775.022 536.28 779.239 509.732 765.483 490.844C751.792 471.955 725.188 467.736 706.305 481.497C705.916 481.756 705.591 482.016 705.202 482.34L700.725 476.174C701.114 475.85 701.439 475.59 701.828 475.33C717.271 464.101 736.997 463.062 753.089 470.852L755.88 468.839C690.732 395.881 579.644 382.705 498.794 441.448C493.473 445.342 488.411 449.432 483.61 453.716C501.713 467.541 553.429 507.006 553.429 507.006L548.822 513.107L469.14 452.223L469.724 449.821C470.632 446.056 471.281 442.291 471.735 438.527C474.331 395.816 447.662 355.248 404.966 342.137C402.24 341.293 399.515 340.579 396.855 339.995C396.725 338.177 396.076 336.36 394.973 334.802C391.663 330.258 385.304 329.22 380.697 332.53C376.155 335.84 375.117 342.201 378.426 346.81C378.881 347.459 379.465 348.043 380.049 348.563C384.201 352.976 388.095 357.715 391.793 362.778C393.026 364.465 394.194 366.218 395.362 367.906C404.576 383.289 408.989 400.62 408.794 417.821L456.616 483.639C456.616 483.639 456.551 483.768 456.487 483.833L556.933 622.155L550.509 626.828L529.486 597.879C483.026 649.027 467.453 710.886 495.809 749.896C524.165 788.972 587.755 793.256 650.761 764.89M716.363 495.257C727.588 487.079 743.356 489.545 751.532 500.84C759.708 512.069 757.242 527.842 745.952 536.02C734.726 544.199 718.958 541.732 710.782 530.438C702.607 519.209 705.072 503.436 716.363 495.257ZM383.228 336.1C385.759 334.283 389.263 334.802 391.079 337.333C392.896 339.865 392.377 343.37 389.847 345.187C387.316 347.005 383.812 346.485 381.995 343.954C380.178 341.423 380.697 337.917 383.228 336.1Z" fill="#1F2224"/>
<g id="Mask group">
<mask id="mask0_26_43" style="mask-type:alpha" maskUnits="userSpaceOnUse" x="208" y="-1" width="261" height="359">
<path id="Vector_5" d="M368.434 170.906C410.092 170.906 447.208 137.023 462.781 89.8341C466.22 77.1119 468.102 63.4161 468.102 49.201C468.102 31.7404 465.247 15.1236 460.185 -0.000244141H277.007C271.88 15.1236 269.09 31.7404 269.09 49.201C269.09 54.7831 269.415 60.3004 269.934 65.7528C277.915 63.8704 286.091 62.9617 294.332 63.2863C319.898 64.1301 342.414 76.0734 356.235 96.0005L349.941 100.349C337.547 82.4345 317.172 71.7245 294.072 70.9455C264.353 69.9719 234.635 85.3554 216.077 110.41C213.092 115.343 210.561 120.536 208.615 125.989C213.157 128.325 217.569 130.792 221.852 133.453C230.287 113.915 249.624 100.285 272.27 100.285C302.572 100.285 327.165 124.885 327.165 155.198C327.165 178.89 312.111 199.076 291.087 206.736L344.555 244.772L340.143 251.004L294.916 218.874C292.45 215.434 288.492 213.227 283.95 213.227C276.488 213.227 270.518 219.263 270.518 226.663C270.518 234.062 276.552 240.099 283.95 240.099C287.583 240.099 290.893 238.606 293.358 236.269C293.229 238.736 293.164 241.267 293.164 243.799C293.164 280.018 304.779 313.641 324.634 341.487C323.661 343.045 323.142 344.862 323.142 346.81C323.142 352.457 327.684 357.001 333.329 357.001C338.975 357.001 343.517 352.457 343.517 346.81C343.517 346.031 343.387 345.252 343.257 344.473C342.543 338.436 342.089 332.335 342.089 326.104C342.089 261.065 382.904 205.632 440.395 183.953C438.253 173.567 434.619 163.701 429.623 154.549C411.974 169.737 390.82 178.695 368.499 178.695C361.426 178.695 354.418 177.786 347.605 176.034L349.551 168.634C355.716 170.257 362.075 171.036 368.499 171.036M283.885 233.933C279.797 233.933 276.488 230.622 276.488 226.533C276.488 222.444 279.797 219.133 283.885 219.133C287.973 219.133 291.282 222.444 291.282 226.533C291.282 230.622 287.973 233.933 283.885 233.933ZM333.264 352.327C330.15 352.327 327.619 349.796 327.619 346.68C327.619 343.564 330.15 341.033 333.264 341.033C336.379 341.033 338.91 343.564 338.91 346.68C338.91 349.796 336.379 352.327 333.264 352.327Z" fill="#D1E6F0"/>
</mask>
<g mask="url(#mask0_26_43)">
<g id="Group">
<path id="Vector_6" d="M416.245 -21L179 216.775V229.847L429.287 -21H416.245Z" fill="#8CA0A8"/>
<path id="Vector_7" d="M390.163 -21L179 190.635V203.706L403.205 -21H390.163Z" fill="#8CA0A8"/>
<path id="Vector_8" d="M364.081 -21L179 164.495V177.564L377.121 -21H364.081Z" fill="#8CA0A8"/>
<path id="Vector_9" d="M520.575 -21L179 321.338V334.407L533.615 -21H520.575Z" fill="#8CA0A8"/>
<path id="Vector_10" d="M442.327 -21L179 242.915V255.987L455.369 -21H442.327Z" fill="#8CA0A8"/>
<path id="Vector_11" d="M494.493 -21L179 295.198V308.267L507.533 -21H494.493Z" fill="#8CA0A8"/>
<path id="Vector_12" d="M468.409 -21L179 269.056V282.127L481.451 -21H468.409Z" fill="#8CA0A8"/>
<path id="Vector_13" d="M285.833 -21L179 86.072V99.1432L298.875 -21H285.833Z" fill="#8CA0A8"/>
<path id="Vector_14" d="M233.669 -21L179 33.7916V46.8628L246.711 -21H233.669Z" fill="#8CA0A8"/>
<path id="Vector_15" d="M207.587 -21L179 7.65138V20.7226L220.63 -21H207.587Z" fill="#8CA0A8"/>
<path id="Vector_16" d="M337.999 -21L179 138.355V151.424L351.039 -21H337.999Z" fill="#8CA0A8"/>
<path id="Vector_17" d="M311.917 -21L179 112.214V125.283L324.957 -21H311.917Z" fill="#8CA0A8"/>
<path id="Vector_18" d="M259.751 -21L179 59.9318V73.003L272.793 -21H259.751Z" fill="#8CA0A8"/>
<path id="Vector_19" d="M431.388 369L544 256.136V243.067L418.348 369H431.388Z" fill="#8CA0A8"/>
<path id="Vector_20" d="M457.472 369L544 282.276V269.207L444.43 369H457.472Z" fill="#8CA0A8"/>
<path id="Vector_21" d="M379.224 369L544 203.855V190.784L366.184 369H379.224Z" fill="#8CA0A8"/>
<path id="Vector_22" d="M405.306 369L544 229.996V216.927L392.266 369H405.306Z" fill="#8CA0A8"/>
<path id="Vector_23" d="M300.978 369L544 125.435V112.364L287.936 369H300.978Z" fill="#8CA0A8"/>
<path id="Vector_24" d="M222.73 369L544 47.0119V33.9429L209.69 369H222.73Z" fill="#8CA0A8"/>
<path id="Vector_25" d="M248.812 369L544 73.152V60.083L235.772 369H248.812Z" fill="#8CA0A8"/>
<path id="Vector_26" d="M196.648 369L544 20.8717V7.80054L183.608 369H196.648Z" fill="#8CA0A8"/>
<path id="Vector_27" d="M353.142 369L544 177.715V164.644L340.1 369H353.142Z" fill="#8CA0A8"/>
<path id="Vector_28" d="M327.06 369L544 151.575V138.504L314.018 369H327.06Z" fill="#8CA0A8"/>
<path id="Vector_29" d="M179 347.479V360.548L544 -5.2684V-18.3396L179 347.479Z" fill="#8CA0A8"/>
<path id="Vector_30" d="M274.896 369L544 99.2924V86.2234L261.854 369H274.896Z" fill="#8CA0A8"/>
</g>
</g>
</g>
</g>
</g>
<defs>
<clipPath id="clip0_26_43">
<rect width="805" height="783" fill="white"/>
</clipPath>
</defs>
</svg>
