<svg width="16" height="16" viewBox="0 0 16 16" fill="none" xmlns="http://www.w3.org/2000/svg">
<g clip-path="url(#clip0_752_2037)">
<path d="M6.1136 8.62696C5.91951 8.53754 5.64668 8.49283 5.29663 8.48877H3.54126V10.6694H5.26868C5.62382 10.6694 5.89868 10.6226 6.09734 10.5256C6.45451 10.3478 6.63436 10.0079 6.63436 9.50439C6.63436 9.07914 6.46111 8.78599 6.1136 8.62696Z" fill="#DBD8D5"/>
<path d="M6.13595 6.93258C6.35696 6.79794 6.4667 6.55864 6.4667 6.21367C6.4667 5.83313 6.32139 5.58062 6.02824 5.45919C5.77624 5.37536 5.45362 5.33167 5.06292 5.33167H3.54126V7.13581H5.27122C5.62636 7.1353 5.91443 7.06772 6.13595 6.93258Z" fill="#DBD8D5"/>
<path d="M11.4397 7.08295C11.046 7.08295 10.7411 7.19675 10.5247 7.41878C10.3077 7.64182 10.1726 7.94361 10.1167 8.32567H12.7561C12.7261 7.91973 12.5905 7.61083 12.3456 7.401C12.1032 7.18913 11.8009 7.08295 11.4397 7.08295Z" fill="#DBD8D5"/>
<path d="M0 0V16H16V0H0ZM9.77975 4.25048H13.0725V5.06846H9.77975V4.25048ZM7.9939 10.9254C7.83843 11.1805 7.64588 11.3949 7.41471 11.5687C7.15407 11.7688 6.84618 11.906 6.49206 11.9792C6.13692 12.0533 5.75181 12.0899 5.33824 12.0899H1.65426V3.9121H5.60447C6.59926 3.92684 7.30547 4.21542 7.72209 4.78293C7.97256 5.13095 8.09602 5.54706 8.09602 6.03074C8.09602 6.5322 7.97053 6.93154 7.71752 7.23485C7.5778 7.40607 7.37 7.56052 7.09514 7.70024C7.51124 7.85368 7.82675 8.09196 8.0376 8.42322C8.24997 8.75143 8.35615 9.15229 8.35615 9.62022C8.35666 10.1059 8.23777 10.5413 7.9939 10.9254ZM14.3447 9.33672H10.079C10.1029 9.92557 10.3056 10.3371 10.6917 10.5734C10.9239 10.7212 11.2059 10.7928 11.5356 10.7928C11.8847 10.7928 12.1661 10.7049 12.3856 10.5251C12.5045 10.4296 12.6087 10.2939 12.6996 10.1232H14.2629C14.2223 10.4712 14.0343 10.8228 13.6954 11.182C13.1721 11.7516 12.4369 12.0376 11.493 12.0376C10.7126 12.0376 10.0257 11.7952 9.42919 11.3161C8.83475 10.8355 8.53499 10.0536 8.53499 8.9699C8.53499 7.95427 8.80325 7.17592 9.34129 6.63432C9.88137 6.09272 10.5784 5.82243 11.4371 5.82243C11.9467 5.82243 12.4049 5.91337 12.8149 6.09526C13.2229 6.27918 13.5603 6.56776 13.825 6.96304C14.0663 7.31208 14.2197 7.71497 14.2929 8.17579C14.3346 8.44151 14.3523 8.82967 14.3447 9.33672Z" fill="#DBD8D5"/>
</g>
<defs>
<clipPath id="clip0_752_2037">
<rect width="16" height="16" rx="3" fill="white"/>
</clipPath>
</defs>
</svg>
