<svg width="125" height="121" viewBox="0 0 125 121" fill="none" xmlns="http://www.w3.org/2000/svg">
<g clip-path="url(#clip0_856_367)">
<path d="M56.7799 26.33C63.1999 26.33 68.9199 21.11 71.3199 13.84C71.8499 11.88 72.1399 9.77 72.1399 7.58C72.1399 4.89 71.6999 2.33 70.9199 0H42.6899C41.8999 2.33 41.4699 4.89 41.4699 7.58C41.4699 8.44 41.5199 9.29 41.5999 10.13C42.8299 9.84 44.0899 9.7 45.3599 9.75C49.2999 9.88 52.7699 11.72 54.8999 14.79L53.9299 15.46C52.0199 12.7 48.8799 11.05 45.3199 10.93C40.7399 10.78 36.1599 13.15 33.2999 17.01C32.8399 17.77 32.4499 18.57 32.1499 19.41C32.8499 19.77 33.5299 20.15 34.1899 20.56C35.4899 17.55 38.4699 15.45 41.9599 15.45C46.6299 15.45 50.4199 19.24 50.4199 23.91C50.4199 27.56 48.0999 30.67 44.8599 31.85L53.0999 37.71L52.4199 38.67L45.4499 33.72C45.0699 33.19 44.4599 32.85 43.7599 32.85C42.6099 32.85 41.6899 33.78 41.6899 34.92C41.6899 36.06 42.6199 36.99 43.7599 36.99C44.3199 36.99 44.8299 36.76 45.2099 36.4C45.1899 36.78 45.1799 37.17 45.1799 37.56C45.1799 43.14 46.9699 48.32 50.0299 52.61C49.8799 52.85 49.7999 53.13 49.7999 53.43C49.7999 54.3 50.4999 55 51.3699 55C52.2399 55 52.9399 54.3 52.9399 53.43C52.9399 53.31 52.9199 53.19 52.8999 53.07C52.7899 52.14 52.7199 51.2 52.7199 50.24C52.7199 40.22 59.0099 31.68 67.8699 28.34C67.5399 26.74 66.9799 25.22 66.2099 23.81C63.4899 26.15 60.2299 27.53 56.7899 27.53C55.6999 27.53 54.6199 27.39 53.5699 27.12L53.8699 25.98C54.8199 26.23 55.7999 26.35 56.7899 26.35M43.7499 36.04C43.1199 36.04 42.6099 35.53 42.6099 34.9C42.6099 34.27 43.1199 33.76 43.7499 33.76C44.3799 33.76 44.8899 34.27 44.8899 34.9C44.8899 35.53 44.3799 36.04 43.7499 36.04ZM51.3599 54.28C50.8799 54.28 50.4899 53.89 50.4899 53.41C50.4899 52.93 50.8799 52.54 51.3599 52.54C51.8399 52.54 52.2299 52.93 52.2299 53.41C52.2299 53.89 51.8399 54.28 51.3599 54.28Z" fill="white"/>
<path d="M29.4 44.53C31.38 38.43 28.19 31.37 22.01 26.84C20.31 25.73 18.4 24.8 16.31 24.12C13.75 23.29 11.18 22.91 8.72 22.94L0 49.8C1.97 51.27 4.27 52.47 6.83 53.31C7.65 53.58 8.47 53.8 9.29 53.97C9.39 52.71 9.65 51.47 10.08 50.28C11.42 46.58 14.24 43.84 17.82 42.77L18.16 43.9C14.95 44.86 12.4 47.34 11.19 50.69C9.63 54.99 10.47 60.09 13.26 64C13.84 64.67 14.48 65.29 15.19 65.84C15.75 65.28 16.32 64.76 16.92 64.26C14.46 62.1 13.39 58.6 14.46 55.29C15.9 50.85 20.67 48.42 25.12 49.86C28.6 50.99 30.84 54.15 30.96 57.6L39.07 51.57L39.77 52.51L32.9 57.61C32.28 57.81 31.76 58.28 31.55 58.95C31.2 60.04 31.79 61.21 32.88 61.56C33.97 61.91 35.14 61.32 35.49 60.23C35.66 59.69 35.61 59.14 35.37 58.67C35.73 58.8 36.09 58.94 36.46 59.06C41.77 60.79 47.25 60.68 52.28 59.1C52.46 59.31 52.7 59.48 52.99 59.57C53.82 59.84 54.7 59.39 54.97 58.56C55.24 57.73 54.79 56.85 53.96 56.58C53.84 56.54 53.72 56.52 53.6 56.51C52.68 56.33 51.77 56.1 50.85 55.8C41.32 52.7 35.14 44.08 34.7 34.63C33.08 34.44 31.46 34.51 29.88 34.81C31.26 38.12 31.57 41.64 30.5 44.92C30.16 45.96 29.7 46.95 29.11 47.86L28.12 47.23C28.65 46.4 29.07 45.51 29.38 44.56M34.6 59.93C34.41 60.53 33.76 60.86 33.16 60.67C32.56 60.48 32.23 59.83 32.42 59.23C32.62 58.63 33.26 58.3 33.86 58.5C34.46 58.69 34.79 59.34 34.59 59.94M54.3 58.32C54.15 58.78 53.66 59.03 53.2 58.88C52.74 58.73 52.49 58.24 52.64 57.79C52.79 57.33 53.28 57.08 53.74 57.23C54.2 57.38 54.45 57.87 54.3 58.32Z" fill="#F39806"/>
<path d="M38.2401 76.2C33.0501 72.43 25.3501 73.29 19.1401 77.76C17.5601 79.03 16.0801 80.57 14.8001 82.34C13.2201 84.52 12.0701 86.85 11.3401 89.19L34.1801 105.79C36.1901 104.37 38.0401 102.55 39.6301 100.38C40.1401 99.68 40.6001 98.97 41.0201 98.24C39.8501 97.75 38.7501 97.12 37.7601 96.34C34.6501 93.92 32.9201 90.39 33.0101 86.66L34.1801 86.69C34.1001 90.04 35.6701 93.22 38.4801 95.42C42.0901 98.23 47.2001 99.01 51.7701 97.57C52.5901 97.23 53.3701 96.81 54.1101 96.3C53.7501 95.6 53.4301 94.89 53.1401 94.17C50.3201 95.84 46.6701 95.78 43.8501 93.74C40.0701 90.99 39.2301 85.71 41.9801 81.93C44.1301 78.97 47.8301 77.82 51.1501 78.77L47.9201 69.19L49.0301 68.82L51.7601 76.93C51.7601 77.58 52.0501 78.22 52.6101 78.63C53.5401 79.3 54.8301 79.1 55.5101 78.17C56.1801 77.25 55.9801 75.95 55.0501 75.28C54.5901 74.95 54.0501 74.83 53.5301 74.9C53.7701 74.6 54.0101 74.3 54.2301 73.98C57.5101 69.46 59.1101 64.22 59.1501 58.95C59.4101 58.84 59.6401 58.67 59.8201 58.42C60.3301 57.72 60.1701 56.74 59.4701 56.22C58.7701 55.71 57.7901 55.86 57.2701 56.57C57.2001 56.67 57.1401 56.78 57.1001 56.89C56.6401 57.71 56.1401 58.51 55.5801 59.29C49.6901 67.39 39.5701 70.61 30.4501 68.1C29.7701 69.59 29.3401 71.15 29.1301 72.74C32.7001 72.45 36.1501 73.24 38.9401 75.27C39.8201 75.91 40.6201 76.66 41.3001 77.49L40.3901 78.24C39.7701 77.48 39.0501 76.8 38.2401 76.22M54.5001 76.01C55.0101 76.38 55.1201 77.1 54.7501 77.61C54.3801 78.12 53.6601 78.23 53.1501 77.86C52.6401 77.49 52.5301 76.77 52.9001 76.26C53.2701 75.75 53.9901 75.64 54.5001 76.01ZM59.0601 56.78C59.4501 57.06 59.5301 57.61 59.2501 57.99C58.9701 58.38 58.4301 58.47 58.0401 58.18C57.6501 57.9 57.5701 57.35 57.8501 56.97C58.1301 56.58 58.6801 56.5 59.0601 56.78Z" fill="#F39806"/>
<path d="M82.5601 46.75C84.5401 52.85 91.2801 56.68 98.9301 56.72C100.96 56.62 103.05 56.25 105.13 55.57C107.69 54.74 109.99 53.53 111.96 52.06L103.24 25.21C100.78 25.18 98.2101 25.56 95.6501 26.39C94.8301 26.66 94.0401 26.96 93.2701 27.3C93.9301 28.38 94.4501 29.54 94.8001 30.75C95.8901 34.54 95.2201 38.41 92.9601 41.38L92.0301 40.67C94.0601 38 94.6601 34.51 93.6801 31.08C92.4101 26.68 88.7301 23.05 84.1901 21.53C83.3301 21.33 82.4501 21.2 81.5501 21.18C81.4301 21.96 81.2701 22.72 81.0801 23.48C84.3401 23.78 87.2601 25.98 88.3401 29.29C89.7801 33.73 87.3501 38.5 82.9101 39.94C79.4401 41.07 75.7601 39.83 73.6401 37.11L70.6201 46.76L69.5001 46.41L72.0601 38.25C72.4401 37.73 72.5801 37.04 72.3701 36.37C72.0201 35.28 70.8501 34.69 69.7601 35.04C68.6701 35.39 68.0701 36.56 68.4301 37.65C68.6001 38.19 68.9801 38.6 69.4401 38.85C69.0701 38.95 68.7001 39.06 68.3301 39.18C63.0201 40.9 58.6501 44.21 55.5101 48.45C55.2401 48.38 54.9501 48.39 54.6601 48.48C53.8301 48.75 53.3801 49.64 53.6501 50.46C53.9201 51.29 54.8101 51.74 55.6301 51.47C55.7501 51.43 55.8601 51.38 55.9601 51.32C56.8101 50.93 57.6901 50.57 58.6001 50.28C68.1301 47.18 78.2001 50.53 84.1101 57.92C85.5301 57.11 86.8001 56.11 87.9001 54.94C84.8401 53.08 82.5201 50.41 81.4501 47.13C81.1101 46.09 80.9101 45.02 80.8501 43.94L82.0201 43.87C82.0801 44.85 82.2601 45.82 82.5701 46.77M69.3001 37.35C69.1101 36.75 69.4301 36.1 70.0301 35.91C70.6301 35.72 71.2801 36.04 71.4701 36.64C71.6701 37.24 71.3401 37.89 70.7401 38.08C70.1401 38.27 69.4901 37.95 69.3001 37.35ZM54.3001 50.23C54.1501 49.77 54.4001 49.28 54.8601 49.13C55.3201 48.98 55.8101 49.23 55.9601 49.69C56.1101 50.15 55.8601 50.64 55.4001 50.79C54.9401 50.94 54.4501 50.69 54.3001 50.23Z" fill="#F39806"/>
<path d="M100.26 117.81L87.11 99.71L83.85 102.08C84.06 102.73 83.85 103.46 83.27 103.89C82.55 104.41 81.55 104.25 81.02 103.54C80.5 102.82 80.66 101.82 81.38 101.3C81.96 100.88 82.73 100.9 83.28 101.3L99.29 89.67C105.06 88.34 110.38 89.49 113.09 93.23C117.33 99.06 113.65 108.95 104.88 115.33C103.78 116.13 102.65 116.84 101.5 117.45L103.57 120.3C106.44 119.36 109.22 117.96 111.8 116.09C123.92 107.28 127.43 91.02 120.61 78.15L120.31 78.37C120.7 81.11 119.6 83.96 117.22 85.69C117.16 85.73 117.1 85.77 117.04 85.81L116.35 84.86C116.41 84.82 116.47 84.78 116.53 84.74C119.44 82.62 120.09 78.53 117.97 75.62C115.86 72.71 111.76 72.06 108.85 74.18C108.79 74.22 108.74 74.26 108.68 74.31L107.99 73.36C108.05 73.31 108.1 73.27 108.16 73.23C110.54 71.5 113.58 71.34 116.06 72.54L116.49 72.23C106.45 60.99 89.33 58.96 76.87 68.01C76.05 68.61 75.27 69.24 74.53 69.9C77.32 72.03 85.29 78.11 85.29 78.11L84.58 79.05L72.3 69.67L72.39 69.3C72.53 68.72 72.63 68.14 72.7 67.56C73.1 60.98 68.99 54.73 62.41 52.71C61.99 52.58 61.57 52.47 61.16 52.38C61.14 52.1 61.04 51.82 60.87 51.58C60.36 50.88 59.38 50.72 58.67 51.23C57.97 51.74 57.81 52.72 58.32 53.43C58.39 53.53 58.48 53.62 58.57 53.7C59.21 54.38 59.81 55.11 60.38 55.89C60.57 56.15 60.75 56.42 60.93 56.68C62.35 59.05 63.03 61.72 63 64.37L70.37 74.51C70.37 74.51 70.36 74.53 70.35 74.54L85.83 95.85L84.84 96.57L81.6 92.11C74.44 99.99 72.04 109.52 76.41 115.53C80.78 121.55 90.58 122.21 100.29 117.84M110.4 76.3C112.13 75.04 114.56 75.42 115.82 77.16C117.08 78.89 116.7 81.32 114.96 82.58C113.23 83.84 110.8 83.46 109.54 81.72C108.28 79.99 108.66 77.56 110.4 76.3ZM59.06 51.78C59.45 51.5 59.99 51.58 60.27 51.97C60.55 52.36 60.47 52.9 60.08 53.18C59.69 53.46 59.15 53.38 58.87 52.99C58.59 52.6 58.67 52.06 59.06 51.78Z" fill="#F39806"/>
</g>
<defs>
<clipPath id="clip0_856_367">
<rect width="124.06" height="120.63" fill="white"/>
</clipPath>
</defs>
</svg>
