<?xml version="1.0" encoding="UTF-8"?>
<svg id="Layer_1" xmlns="http://www.w3.org/2000/svg" version="1.1" viewBox="0 0 256 256">
  <!-- Generator: Adobe Illustrator 30.4.0, SVG Export Plug-In . SVG Version: 2.1.4 Build 226)  -->
  <path d="M117.18,54.33c13.24,0,25.06-10.77,30-25.78,1.1-4.05,1.7-8.39,1.7-12.91,0-5.55-.9-10.84-2.53-15.64h-58.26c-1.63,4.8-2.53,10.09-2.53,15.64,0,1.78.09,3.53.27,5.25,2.54-.6,5.15-.88,7.75-.79,8.13.27,15.3,4.06,19.68,10.39l-1.99,1.38c-3.94-5.69-10.42-9.1-17.77-9.35-9.44-.32-18.91,4.59-24.8,12.54-.95,1.56-1.75,3.22-2.38,4.96,1.45.74,2.85,1.53,4.21,2.38,2.68-6.2,8.84-10.54,16.03-10.54,9.64,0,17.45,7.81,17.45,17.45,0,7.54-4.78,13.95-11.47,16.39l17.01,12.08-1.41,1.98-14.39-10.22c-.78-1.09-2.05-1.8-3.48-1.8-2.36,0-4.28,1.92-4.28,4.28s1.91,4.28,4.28,4.28c1.16,0,2.22-.47,2.99-1.22-.04.79-.06,1.59-.06,2.39,0,11.52,3.7,22.21,10.02,31.06-.3.49-.48,1.07-.48,1.69,0,1.79,1.45,3.24,3.25,3.24s3.24-1.45,3.24-3.24c0-.26-.03-.5-.09-.74-.24-1.92-.36-3.87-.36-5.85,0-20.67,12.99-38.31,31.26-45.19-.67-3.3-1.84-6.44-3.42-9.35-5.61,4.82-12.33,7.67-19.44,7.67-2.25,0-4.49-.29-6.65-.85l.61-2.35c1.96.51,3.99.77,6.03.77M90.28,74.37c-1.3,0-2.36-1.06-2.36-2.36s1.05-2.36,2.36-2.36,2.36,1.06,2.36,2.36-1.05,2.36-2.36,2.36M105.99,112c-.99,0-1.79-.8-1.79-1.79s.8-1.79,1.79-1.79,1.79.8,1.79,1.79-.8,1.79-1.79,1.79" fill="#ff7f00"/>
  <path d="M60.66,91.89c4.09-12.59-2.5-27.16-15.25-36.5-3.51-2.3-7.46-4.21-11.75-5.6-5.28-1.71-10.59-2.49-15.66-2.43L0,102.77c4.07,3.03,8.82,5.52,14.09,7.23,1.69.55,3.39,1,5.08,1.36.21-2.6.75-5.17,1.64-7.62,2.77-7.64,8.59-13.29,15.97-15.5l.7,2.32c-6.63,1.99-11.88,7.09-14.38,14.01-3.22,8.88-1.48,19.4,4.26,27.46,1.19,1.38,2.52,2.66,3.98,3.79,1.15-1.15,2.34-2.24,3.56-3.27-5.07-4.46-7.29-11.67-5.08-18.5,2.98-9.17,12.82-14.18,21.99-11.21,7.17,2.33,11.8,8.86,12.05,15.98l16.75-12.44,1.45,1.95-14.17,10.53c-1.28.4-2.35,1.39-2.79,2.76-.73,2.25.5,4.66,2.75,5.39,2.25.73,4.66-.5,5.39-2.74.36-1.11.24-2.26-.24-3.22.74.28,1.49.55,2.25.8,10.96,3.56,22.27,3.35,32.64.08.37.44.87.78,1.46.97,1.7.56,3.53-.38,4.09-2.08.55-1.7-.38-3.53-2.08-4.09-.24-.08-.49-.13-.73-.15-1.89-.37-3.79-.85-5.67-1.46-19.66-6.39-32.42-24.2-33.32-43.69-3.35-.38-6.69-.24-9.95.36,2.85,6.83,3.49,14.1,1.29,20.86-.7,2.14-1.66,4.18-2.86,6.06l-2.04-1.31c1.09-1.7,1.97-3.56,2.6-5.5M71.41,123.67c-.4,1.24-1.73,1.92-2.97,1.52-1.24-.4-1.92-1.74-1.52-2.97.4-1.24,1.74-1.92,2.97-1.51,1.24.4,1.92,1.73,1.51,2.97M112.05,120.36c-.31.95-1.32,1.46-2.26,1.15-.95-.31-1.46-1.32-1.15-2.26.31-.94,1.32-1.46,2.26-1.15.94.31,1.46,1.32,1.15,2.26" fill="#130c0e"/>
  <path d="M78.92,157.25c-10.71-7.78-26.6-6.01-39.42,3.22-3.27,2.63-6.31,5.79-8.96,9.45-3.26,4.49-5.64,9.3-7.15,14.14l47.13,34.25c4.14-2.93,7.98-6.68,11.24-11.17,1.05-1.44,2-2.92,2.86-4.41-2.41-1.01-4.68-2.31-6.74-3.92-6.41-5-9.99-12.28-9.81-19.98l2.42.06c-.16,6.92,3.08,13.48,8.88,18.01,7.45,5.8,18,7.4,27.43,4.43,1.69-.7,3.31-1.57,4.84-2.61-.74-1.45-1.4-2.91-2.01-4.4-5.81,3.45-13.35,3.33-19.16-.89-7.8-5.67-9.53-16.58-3.86-24.38,4.43-6.1,12.07-8.48,18.92-6.52l-6.66-19.77,2.3-.77,5.63,16.73c-.01,1.34.6,2.66,1.76,3.5,1.91,1.39,4.59.97,5.97-.95,1.39-1.91.97-4.59-.95-5.97-.95-.69-2.07-.93-3.14-.77.49-.61.98-1.25,1.45-1.89,6.77-9.32,10.06-20.15,10.16-31.02.53-.22,1.02-.58,1.38-1.09,1.05-1.45.73-3.48-.72-4.53-1.45-1.05-3.48-.73-4.53.72-.15.2-.27.43-.36.65-.94,1.69-1.98,3.34-3.14,4.94-12.15,16.72-33.03,23.35-51.85,18.18-1.4,3.07-2.29,6.29-2.73,9.57,7.38-.6,14.49,1.04,20.24,5.22,1.82,1.32,3.46,2.87,4.88,4.59l-1.88,1.54c-1.28-1.57-2.77-2.97-4.43-4.17M112.47,156.85c1.05.77,1.29,2.24.52,3.3-.77,1.05-2.24,1.29-3.3.52-1.05-.77-1.29-2.24-.52-3.3.77-1.05,2.25-1.29,3.3-.52M121.88,117.18c.8.58.98,1.7.39,2.5-.58.8-1.7.98-2.5.4-.8-.58-.98-1.71-.4-2.51.58-.8,1.7-.98,2.51-.4" fill="#130c0e"/>
  <path d="M170.37,96.48c4.09,12.59,17.99,20.5,33.79,20.57,4.19-.21,8.51-.98,12.8-2.38,5.28-1.71,10.03-4.21,14.09-7.24l-18-55.41c-5.07-.06-10.37.71-15.65,2.43-1.69.55-3.33,1.18-4.91,1.89,1.36,2.23,2.44,4.62,3.15,7.13,2.25,7.81.87,15.81-3.8,21.93l-1.93-1.47c4.2-5.5,5.44-12.72,3.4-19.79-2.61-9.08-10.21-16.57-19.59-19.71-1.77-.42-3.6-.67-5.45-.73-.26,1.6-.58,3.18-.96,4.74,6.73.63,12.76,5.15,14.98,11.99,2.98,9.16-2.04,19.01-11.2,21.99-7.17,2.33-14.75-.24-19.14-5.85l-6.23,19.91-2.32-.73,5.28-16.85c.79-1.07,1.08-2.5.63-3.87-.73-2.25-3.14-3.48-5.39-2.74-2.25.73-3.48,3.14-2.74,5.39.36,1.11,1.13,1.97,2.09,2.47-.77.21-1.53.43-2.29.68-10.96,3.56-19.98,10.38-26.45,19.12-.56-.14-1.16-.13-1.75.07-1.7.55-2.64,2.39-2.08,4.09.56,1.7,2.39,2.64,4.09,2.08.24-.08.47-.19.68-.32,1.75-.81,3.56-1.54,5.45-2.15,19.66-6.39,40.45.52,52.64,15.76,2.93-1.66,5.56-3.74,7.83-6.14-6.31-3.85-11.1-9.36-13.3-16.11-.7-2.14-1.11-4.36-1.24-6.58l2.42-.14c.12,2.02.5,4.03,1.13,5.98M143,77.08c-.4-1.24.27-2.57,1.51-2.97,1.24-.4,2.57.28,2.97,1.51.4,1.24-.27,2.57-1.51,2.97-1.24.4-2.57-.27-2.97-1.51M112.06,103.65c-.31-.94.21-1.95,1.15-2.26.94-.31,1.95.21,2.26,1.15.31.94-.21,1.96-1.15,2.26-.94.31-1.95-.21-2.26-1.15" fill="#130c0e"/>
  <path d="M206.9,243.11l-27.13-37.34-6.73,4.89c.44,1.34,0,2.86-1.2,3.72-1.48,1.08-3.56.75-4.63-.73-1.08-1.48-.75-3.56.73-4.63,1.2-.87,2.78-.82,3.91.01l33.04-24c11.91-2.75,22.88-.36,28.49,7.35,8.74,12.04,1.16,32.45-16.94,45.6-2.27,1.65-4.61,3.11-6.97,4.38l4.27,5.88c5.93-1.94,11.66-4.82,16.98-8.69,25.02-18.18,32.26-51.74,18.17-78.3l-.62.45c.8,5.64-1.45,11.54-6.38,15.11-.12.09-.24.17-.37.26l-1.43-1.96c.12-.08.24-.16.37-.25,6.01-4.37,7.34-12.81,2.98-18.82-4.36-6.01-12.81-7.35-18.82-2.98-.12.09-.24.18-.35.27l-1.43-1.96c.12-.09.23-.18.36-.27,4.91-3.56,11.18-3.9,16.29-1.43l.88-.64c-20.72-23.2-56.05-27.39-81.75-8.72-1.69,1.23-3.3,2.53-4.82,3.89,5.76,4.4,22.2,16.95,22.2,16.95l-1.47,1.93-25.34-19.35.18-.77c.29-1.19.5-2.39.64-3.58.83-13.58-7.66-26.48-21.24-30.65-.86-.26-1.73-.49-2.59-.67-.05-.58-.24-1.15-.61-1.65-1.05-1.45-3.08-1.77-4.53-.72-1.45,1.05-1.77,3.08-.72,4.53.15.21.32.39.51.55,1.31,1.41,2.57,2.91,3.73,4.51.39.54.76,1.08,1.13,1.63,2.94,4.89,4.34,10.4,4.27,15.87l15.2,20.92s-.03.04-.05.06l31.95,43.98-2.04,1.49-6.68-9.2c-14.77,16.26-19.72,35.92-10.7,48.33,9.02,12.41,29.25,13.78,49.27,4.76M227.83,157.46c3.58-2.6,8.59-1.81,11.19,1.77,2.6,3.58,1.81,8.59-1.77,11.19-3.58,2.6-8.59,1.81-11.19-1.77-2.6-3.58-1.81-8.59,1.78-11.19M121.88,106.85c.8-.58,1.92-.4,2.5.4.58.8.41,1.92-.39,2.51-.8.58-1.92.4-2.51-.4-.58-.8-.4-1.92.4-2.51" fill="#130c0e"/>
</svg>