<svg viewBox="0 0 525 228" fill="none" xmlns="http://www.w3.org/2000/svg">
<g id="404">
<path d="M257.021 34.6807C236.621 36.7209 219.281 55.7609 219.281 113.9C219.281 172.04 236.621 191.08 257.021 193.12V227.801C215.881 226.441 175.761 198.22 175.761 113.9C175.761 29.5807 215.881 1.3602 257.021 0V34.6807Z" fill="white"/>
<path d="M263.821 0C305.301 1.36012 345.421 29.5806 345.421 113.9C345.421 198.22 305.301 226.441 263.821 227.801V193.12C284.221 191.08 301.901 172.04 301.901 113.9C301.901 55.7607 284.221 36.7208 263.821 34.6807V0Z" fill="white"/>
<path d="M135.66 145.86H157.76V180.54H135.66V224.4H93.5V91.8008H135.66V145.86Z" fill="white"/>
<path d="M502.143 145.86H524.242V180.54H502.143V224.4H459.982V91.8008H502.143V145.86Z" fill="white"/>
<path d="M46.2393 145.86H86.7002V180.54H0V150.96L36.04 3.40039H78.8799L46.2393 145.86Z" fill="white"/>
<path d="M412.723 145.86H453.183V180.54H366.482V150.96L402.522 3.40039H445.362L412.723 145.86Z" fill="white"/>
</g>
</svg>
