<svg viewBox="0 0 893 869" fill="none" xmlns="http://www.w3.org/2000/svg">
<g id="enfineitz-glyph-primary">
<path id="Vector" d="M408.738 189.54C454.953 189.54 496.129 151.963 513.406 99.6289C517.221 85.5196 519.309 70.3305 519.309 54.5655C519.309 35.2013 516.141 16.7728 510.526 0H307.309C301.623 16.7728 298.527 35.2013 298.527 54.5655C298.527 60.7564 298.887 66.8752 299.463 72.922C308.317 70.8344 317.388 69.8266 326.53 70.1866C354.892 71.1224 379.872 84.3678 395.205 106.468L388.222 111.291C374.473 91.4225 351.869 79.5448 326.242 78.6809C293.272 77.6011 260.302 94.6619 239.714 122.449C236.403 127.919 233.596 133.678 231.436 139.725C236.475 142.317 241.37 145.052 246.121 148.004C255.479 126.336 276.931 111.219 302.054 111.219C335.672 111.219 362.955 138.501 362.955 172.119C362.955 198.394 346.254 220.782 322.93 229.276L382.247 271.46L377.352 278.371L327.178 242.738C324.442 238.922 320.051 236.475 315.012 236.475C306.734 236.475 300.111 243.169 300.111 251.376C300.111 259.582 306.806 266.277 315.012 266.277C319.043 266.277 322.714 264.621 325.45 262.03C325.306 264.765 325.234 267.573 325.234 270.38C325.234 310.549 338.12 347.837 360.147 378.719C359.068 380.447 358.492 382.463 358.492 384.622C358.492 390.885 363.531 395.924 369.793 395.924C376.056 395.924 381.095 390.885 381.095 384.622C381.095 383.758 380.951 382.895 380.807 382.031C380.016 375.336 379.512 368.569 379.512 361.659C379.512 289.529 424.791 228.052 488.571 204.009C486.195 192.491 482.164 181.549 476.621 171.399C457.041 188.244 433.573 198.178 408.81 198.178C400.963 198.178 393.189 197.17 385.63 195.227L387.79 187.02C394.629 188.82 401.683 189.684 408.81 189.684M314.94 259.438C310.405 259.438 306.734 255.767 306.734 251.232C306.734 246.697 310.405 243.025 314.94 243.025C319.475 243.025 323.146 246.697 323.146 251.232C323.146 255.767 319.475 259.438 314.94 259.438ZM369.721 390.741C366.266 390.741 363.459 387.934 363.459 384.478C363.459 381.023 366.266 378.216 369.721 378.216C373.177 378.216 375.984 381.023 375.984 384.478C375.984 387.934 373.177 390.741 369.721 390.741Z" fill="#F39806"/>
<path id="Vector_2" d="M211.639 320.554C225.893 276.642 202.929 225.82 158.442 193.21C146.204 185.22 132.455 178.525 117.409 173.63C98.981 167.655 80.4806 164.92 62.7719 165.136L0 358.491C14.1813 369.073 30.7381 377.711 49.1666 383.758C55.0694 385.702 60.9723 387.285 66.8752 388.509C67.595 379.439 69.4667 370.512 72.5621 361.946C82.2082 335.311 102.508 315.587 128.279 307.885L130.727 316.019C107.619 322.93 89.2629 340.782 80.5525 364.898C69.3227 395.852 75.3695 432.565 95.4537 460.711C99.6289 465.534 104.236 469.997 109.347 473.957C113.378 469.925 117.481 466.182 121.801 462.583C104.092 447.034 96.3895 421.839 104.092 398.011C114.458 366.049 148.795 348.557 180.829 358.923C205.88 367.057 222.005 389.805 222.869 414.64L281.25 371.232L286.289 377.999L236.835 414.712C232.371 416.152 228.628 419.535 227.116 424.358C224.597 432.205 228.844 440.627 236.691 443.147C244.537 445.666 252.959 441.419 255.479 433.572C256.703 429.685 256.343 425.726 254.615 422.343C257.207 423.278 259.798 424.286 262.462 425.15C300.686 437.604 340.135 436.812 376.344 425.438C377.639 426.95 379.367 428.173 381.455 428.821C387.43 430.765 393.764 427.526 395.708 421.551C397.652 415.576 394.412 409.241 388.437 407.297C387.574 407.01 386.71 406.866 385.846 406.794C379.223 405.498 372.672 403.842 366.05 401.683C297.447 379.367 252.959 317.315 249.792 249.288C238.13 247.92 226.469 248.424 215.095 250.583C225.029 274.411 227.26 299.75 219.558 323.362C217.11 330.848 213.799 337.975 209.552 344.525L202.425 339.99C206.24 334.016 209.264 327.609 211.495 320.77M249.072 431.413C247.704 435.732 243.025 438.108 238.706 436.74C234.387 435.372 232.011 430.693 233.379 426.374C234.819 422.055 239.426 419.679 243.745 421.119C248.064 422.487 250.44 427.166 249 431.485M390.885 419.823C389.805 423.134 386.278 424.934 382.966 423.854C379.655 422.775 377.855 419.247 378.935 416.008C380.015 412.696 383.542 410.897 386.854 411.977C390.165 413.056 391.965 416.584 390.885 419.823Z" fill="#1F2224"/>
<path id="Vector_3" d="M275.275 548.535C237.914 521.396 182.485 527.587 137.782 559.765C126.408 568.907 115.754 579.993 106.54 592.734C95.1657 608.427 86.8873 625.2 81.6323 642.045L246.049 761.542C260.518 751.32 273.835 738.218 285.281 722.597C288.953 717.558 292.264 712.447 295.287 707.192C286.865 703.665 278.946 699.13 271.82 693.515C249.432 676.094 236.979 650.683 237.626 623.832L246.049 624.048C245.473 648.164 256.775 671.055 277.003 686.892C302.99 707.12 339.775 712.735 372.672 702.369C378.575 699.922 384.19 696.898 389.517 693.227C386.926 688.188 384.622 683.077 382.535 677.894C362.234 689.916 335.96 689.484 315.659 674.799C288.449 655.002 282.402 616.994 302.198 589.783C317.675 568.475 344.31 560.196 368.209 567.035L344.958 498.072L352.948 495.409L372.6 553.79C372.6 558.469 374.688 563.076 378.719 566.027C385.414 570.85 394.7 569.411 399.595 562.716C404.418 556.093 402.979 546.735 396.284 541.912C392.973 539.536 389.085 538.673 385.342 539.177C387.07 537.017 388.797 534.857 390.381 532.554C413.993 500.016 425.51 462.295 425.798 424.359C427.67 423.567 429.326 422.343 430.621 420.543C434.293 415.504 433.141 408.45 428.102 404.706C423.063 401.035 416.008 402.115 412.265 407.226C411.761 407.946 411.329 408.738 411.041 409.529C407.73 415.432 404.13 421.191 400.099 426.806C357.699 485.115 284.849 508.294 219.198 490.226C214.303 500.952 211.207 512.182 209.696 523.627C235.395 521.54 260.23 527.227 280.314 541.84C286.649 546.447 292.408 551.846 297.303 557.821L290.752 563.22C286.289 557.749 281.106 552.854 275.275 548.679M392.325 547.167C395.996 549.831 396.788 555.013 394.124 558.685C391.461 562.356 386.278 563.148 382.607 560.484C378.935 557.821 378.143 552.638 380.807 548.967C383.47 545.295 388.653 544.504 392.325 547.167ZM425.15 408.738C427.958 410.753 428.534 414.712 426.518 417.448C424.503 420.255 420.615 420.903 417.808 418.816C415 416.8 414.424 412.841 416.44 410.105C418.456 407.298 422.415 406.722 425.15 408.738Z" fill="#1F2224"/>
<path id="Vector_4" d="M594.318 336.535C608.571 380.447 657.09 408.017 712.159 408.305C726.773 407.585 741.818 404.922 756.791 400.027C775.219 394.052 791.776 385.342 805.957 374.76L743.186 181.477C725.477 181.261 706.976 183.996 688.548 189.971C682.645 191.915 676.958 194.074 671.415 196.522C676.166 204.296 679.91 212.647 682.429 221.357C690.276 248.64 685.453 276.499 669.184 297.878L662.489 292.767C677.102 273.547 681.421 248.424 674.367 223.733C665.224 192.059 638.734 165.928 606.052 154.986C599.861 153.546 593.526 152.61 587.048 152.466C586.184 158.081 585.032 163.552 583.664 169.023C607.132 171.183 628.152 187.02 635.926 210.847C646.292 242.809 628.799 277.146 596.838 287.512C571.858 295.647 545.367 286.721 530.106 267.14L508.367 336.607L500.304 334.087L518.733 275.347C521.468 271.603 522.476 266.636 520.964 261.813C518.445 253.967 510.022 249.72 502.176 252.239C494.329 254.759 490.01 263.181 492.602 271.028C493.825 274.915 496.561 277.866 499.872 279.666C497.209 280.386 494.545 281.178 491.882 282.041C453.657 294.423 422.199 318.251 399.595 348.773C397.652 348.269 395.564 348.341 393.477 348.989C387.502 350.932 384.262 357.339 386.206 363.242C388.15 369.217 394.556 372.456 400.459 370.513C401.323 370.225 402.115 369.865 402.835 369.433C408.954 366.625 415.288 364.034 421.839 361.946C490.442 339.63 562.932 363.746 605.476 416.944C615.698 411.113 624.84 403.914 632.759 395.492C610.731 382.102 594.03 362.882 586.328 339.271C583.88 331.784 582.44 324.081 582.008 316.307L590.431 315.803C590.863 322.858 592.159 329.84 594.39 336.679M498.864 268.868C497.497 264.549 499.8 259.87 504.119 258.502C508.439 257.134 513.118 259.438 514.485 263.757C515.925 268.076 513.55 272.755 509.23 274.123C504.911 275.491 500.232 273.187 498.864 268.868ZM390.885 361.586C389.805 358.275 391.605 354.748 394.916 353.668C398.228 352.588 401.755 354.388 402.835 357.699C403.915 361.01 402.115 364.538 398.804 365.617C395.492 366.697 391.965 364.898 390.885 361.586Z" fill="#1F2224"/>
<path id="Vector_5" d="M721.734 848.07L627.072 717.775L603.604 734.835C605.116 739.514 603.604 744.769 599.429 747.865C594.246 751.608 587.047 750.456 583.232 745.345C579.489 740.162 580.641 732.964 585.824 729.22C589.999 726.197 595.542 726.341 599.501 729.22L714.751 645.5C756.287 635.926 794.583 644.205 814.092 671.127C844.614 713.095 818.123 784.29 754.991 830.217C747.073 835.976 738.938 841.087 730.66 845.478L745.561 865.994C766.221 859.227 786.233 849.149 804.806 835.688C892.053 772.268 917.32 655.219 868.225 562.572L866.066 564.156C868.873 583.88 860.955 604.396 843.822 616.85C843.39 617.138 842.958 617.426 842.526 617.714L837.559 610.875C837.991 610.587 838.423 610.299 838.855 610.011C859.803 594.75 864.482 565.308 849.221 544.36C834.032 523.412 804.518 518.733 783.57 533.994C783.138 534.282 782.778 534.57 782.346 534.93L777.379 528.091C777.811 527.731 778.171 527.443 778.603 527.155C795.735 514.701 817.619 513.55 835.472 522.188L838.567 519.956C766.293 439.044 643.053 424.431 553.358 489.578C547.455 493.897 541.84 498.433 536.513 503.184C556.597 518.517 613.97 562.284 613.97 562.284L608.859 569.051L520.46 501.528L521.108 498.864C522.116 494.689 522.836 490.514 523.34 486.339C526.219 438.972 496.633 393.981 449.266 379.439C446.242 378.504 443.219 377.712 440.268 377.064C440.124 375.048 439.404 373.033 438.18 371.305C434.509 366.266 427.454 365.114 422.343 368.785C417.304 372.457 416.152 379.511 419.823 384.622C420.327 385.342 420.975 385.99 421.623 386.566C426.23 391.461 430.549 396.716 434.653 402.331C436.02 404.203 437.316 406.146 438.612 408.018C448.834 425.079 453.729 444.299 453.513 463.375L506.567 536.369C506.567 536.369 506.495 536.513 506.423 536.585L617.857 689.988L610.731 695.171L587.407 663.065C535.865 719.79 518.589 788.393 550.047 831.657C581.504 874.992 652.051 879.743 721.949 848.285M794.728 549.255C807.181 540.185 824.674 542.92 833.744 555.446C842.814 567.899 840.079 585.392 827.553 594.462C815.1 603.532 797.607 600.797 788.537 588.271C779.466 575.818 782.202 558.325 794.728 549.255ZM425.15 372.745C427.958 370.729 431.845 371.305 433.861 374.112C435.876 376.92 435.301 380.807 432.493 382.823C429.686 384.838 425.798 384.262 423.783 381.455C421.767 378.647 422.343 374.76 425.15 372.745Z" fill="#1F2224"/>
</g>
</svg>
